<mxfile host="app.diagrams.net" modified="2023-04-23T12:05:20.127Z" agent="Mozilla/5.0 (Macintosh; Intel Mac OS X 10_15_7) AppleWebKit/537.36 (KHTML, like Gecko) Chrome/112.0.0.0 Safari/537.36" etag="hysE_uFGLyBnSiHJY_g4" version="21.2.1" type="github">
  <diagram id="Ab-sKXFEaYm4plngSUeg" name="Page-1">
    <mxGraphModel dx="1542" dy="1010" grid="1" gridSize="10" guides="1" tooltips="1" connect="1" arrows="1" fold="1" page="1" pageScale="1" pageWidth="850" pageHeight="1100" math="0" shadow="0">
      <root>
        <mxCell id="0" />
        <mxCell id="1" parent="0" />
        <mxCell id="ieu4cb_8tg2tb4iUZJ9E-39" value="" style="group" vertex="1" connectable="0" parent="1">
          <mxGeometry x="450" y="20" width="1120" height="730" as="geometry" />
        </mxCell>
        <mxCell id="A-cPtb-7SZQgboOlziiO-1" value="" style="rounded=0;whiteSpace=wrap;html=1;" parent="ieu4cb_8tg2tb4iUZJ9E-39" vertex="1">
          <mxGeometry width="1120" height="730" as="geometry" />
        </mxCell>
        <mxCell id="A-cPtb-7SZQgboOlziiO-2" value="" style="endArrow=none;html=1;rounded=0;entryX=0.25;entryY=0;entryDx=0;entryDy=0;exitX=0.25;exitY=1;exitDx=0;exitDy=0;" parent="ieu4cb_8tg2tb4iUZJ9E-39" source="A-cPtb-7SZQgboOlziiO-1" target="A-cPtb-7SZQgboOlziiO-1" edge="1">
          <mxGeometry width="50" height="50" relative="1" as="geometry">
            <mxPoint x="-190" y="240" as="sourcePoint" />
            <mxPoint x="-140" y="190" as="targetPoint" />
          </mxGeometry>
        </mxCell>
        <mxCell id="ieu4cb_8tg2tb4iUZJ9E-1" value="" style="group" vertex="1" connectable="0" parent="ieu4cb_8tg2tb4iUZJ9E-39">
          <mxGeometry x="30" y="52" width="220" height="80" as="geometry" />
        </mxCell>
        <mxCell id="A-cPtb-7SZQgboOlziiO-35" value="" style="rounded=0;whiteSpace=wrap;html=1;" parent="ieu4cb_8tg2tb4iUZJ9E-1" vertex="1">
          <mxGeometry width="220" height="80" as="geometry" />
        </mxCell>
        <mxCell id="A-cPtb-7SZQgboOlziiO-37" value="" style="fillColor=#999999;verticalLabelPosition=bottom;sketch=0;html=1;strokeColor=#ffffff;verticalAlign=top;align=center;points=[[0.145,0.145,0],[0.5,0,0],[0.855,0.145,0],[1,0.5,0],[0.855,0.855,0],[0.5,1,0],[0.145,0.855,0],[0,0.5,0]];pointerEvents=1;shape=mxgraph.cisco_safe.compositeIcon;bgIcon=ellipse;resIcon=mxgraph.cisco_safe.capability.video;" parent="ieu4cb_8tg2tb4iUZJ9E-1" vertex="1">
          <mxGeometry x="10" y="19" width="43" height="43" as="geometry" />
        </mxCell>
        <mxCell id="A-cPtb-7SZQgboOlziiO-38" value="Video Stab" style="text;strokeColor=none;fillColor=none;html=1;fontSize=14;fontStyle=1;verticalAlign=middle;align=left;" parent="ieu4cb_8tg2tb4iUZJ9E-1" vertex="1">
          <mxGeometry x="70" y="20.5" width="110" height="40" as="geometry" />
        </mxCell>
        <mxCell id="ieu4cb_8tg2tb4iUZJ9E-2" value="" style="group" vertex="1" connectable="0" parent="ieu4cb_8tg2tb4iUZJ9E-39">
          <mxGeometry x="30" y="134" width="220" height="80" as="geometry" />
        </mxCell>
        <mxCell id="ieu4cb_8tg2tb4iUZJ9E-3" value="" style="rounded=0;whiteSpace=wrap;html=1;" vertex="1" parent="ieu4cb_8tg2tb4iUZJ9E-2">
          <mxGeometry width="220" height="80" as="geometry" />
        </mxCell>
        <mxCell id="ieu4cb_8tg2tb4iUZJ9E-4" value="" style="fillColor=#999999;verticalLabelPosition=bottom;sketch=0;html=1;strokeColor=#ffffff;verticalAlign=top;align=center;points=[[0.145,0.145,0],[0.5,0,0],[0.855,0.145,0],[1,0.5,0],[0.855,0.855,0],[0.5,1,0],[0.145,0.855,0],[0,0.5,0]];pointerEvents=1;shape=mxgraph.cisco_safe.compositeIcon;bgIcon=ellipse;resIcon=mxgraph.cisco_safe.capability.video;" vertex="1" parent="ieu4cb_8tg2tb4iUZJ9E-2">
          <mxGeometry x="10" y="19" width="43" height="43" as="geometry" />
        </mxCell>
        <mxCell id="ieu4cb_8tg2tb4iUZJ9E-5" value="&lt;h2 style=&quot;box-sizing: border-box; margin-top: 24px; margin-bottom: 16px; line-height: 1.25; padding-bottom: 0.3em; border-bottom: 1px solid var(--color-border-muted); color: rgb(31, 35, 40); font-family: -apple-system, &amp;quot;system-ui&amp;quot;, &amp;quot;Segoe UI&amp;quot;, &amp;quot;Noto Sans&amp;quot;, Helvetica, Arial, sans-serif, &amp;quot;Apple Color Emoji&amp;quot;, &amp;quot;Segoe UI Emoji&amp;quot;; background-color: rgb(255, 255, 255); font-size: 14px;&quot; dir=&quot;auto&quot; tabindex=&quot;-1&quot;&gt;Frame Interpolation&lt;/h2&gt;" style="text;strokeColor=none;fillColor=none;html=1;fontSize=14;fontStyle=0;verticalAlign=middle;align=left;" vertex="1" parent="ieu4cb_8tg2tb4iUZJ9E-2">
          <mxGeometry x="70" y="20.5" width="140" height="40" as="geometry" />
        </mxCell>
        <mxCell id="ieu4cb_8tg2tb4iUZJ9E-6" value="" style="group" vertex="1" connectable="0" parent="ieu4cb_8tg2tb4iUZJ9E-39">
          <mxGeometry x="30" y="218" width="220" height="80" as="geometry" />
        </mxCell>
        <mxCell id="ieu4cb_8tg2tb4iUZJ9E-7" value="" style="rounded=0;whiteSpace=wrap;html=1;" vertex="1" parent="ieu4cb_8tg2tb4iUZJ9E-6">
          <mxGeometry y="-1" width="220" height="80" as="geometry" />
        </mxCell>
        <mxCell id="ieu4cb_8tg2tb4iUZJ9E-8" value="" style="fillColor=#999999;verticalLabelPosition=bottom;sketch=0;html=1;strokeColor=#ffffff;verticalAlign=top;align=center;points=[[0.145,0.145,0],[0.5,0,0],[0.855,0.145,0],[1,0.5,0],[0.855,0.855,0],[0.5,1,0],[0.145,0.855,0],[0,0.5,0]];pointerEvents=1;shape=mxgraph.cisco_safe.compositeIcon;bgIcon=ellipse;resIcon=mxgraph.cisco_safe.capability.video;" vertex="1" parent="ieu4cb_8tg2tb4iUZJ9E-6">
          <mxGeometry x="10" y="19" width="43" height="43" as="geometry" />
        </mxCell>
        <mxCell id="ieu4cb_8tg2tb4iUZJ9E-9" value="Super Resolution" style="text;strokeColor=none;fillColor=none;html=1;fontSize=14;fontStyle=1;verticalAlign=middle;align=left;" vertex="1" parent="ieu4cb_8tg2tb4iUZJ9E-6">
          <mxGeometry x="70" y="20.5" width="110" height="40" as="geometry" />
        </mxCell>
        <mxCell id="ieu4cb_8tg2tb4iUZJ9E-10" value="" style="group;fillColor=#dae8fc;strokeColor=#6c8ebf;" vertex="1" connectable="0" parent="ieu4cb_8tg2tb4iUZJ9E-39">
          <mxGeometry x="30" y="10" width="220" height="40" as="geometry" />
        </mxCell>
        <mxCell id="ieu4cb_8tg2tb4iUZJ9E-11" value="" style="rounded=0;whiteSpace=wrap;html=1;fillColor=#dae8fc;strokeColor=#6c8ebf;" vertex="1" parent="ieu4cb_8tg2tb4iUZJ9E-10">
          <mxGeometry width="220" height="40" as="geometry" />
        </mxCell>
        <mxCell id="ieu4cb_8tg2tb4iUZJ9E-13" value="Home" style="text;strokeColor=none;fillColor=none;html=1;fontSize=14;fontStyle=1;verticalAlign=middle;align=left;" vertex="1" parent="ieu4cb_8tg2tb4iUZJ9E-10">
          <mxGeometry x="70" y="10.25" width="110" height="20" as="geometry" />
        </mxCell>
        <mxCell id="ieu4cb_8tg2tb4iUZJ9E-14" value="" style="sketch=0;pointerEvents=1;shadow=0;dashed=0;html=1;strokeColor=none;fillColor=#505050;labelPosition=center;verticalLabelPosition=bottom;verticalAlign=top;outlineConnect=0;align=center;shape=mxgraph.office.concepts.home;" vertex="1" parent="ieu4cb_8tg2tb4iUZJ9E-10">
          <mxGeometry x="20" y="10.25" width="20" height="17.5" as="geometry" />
        </mxCell>
        <mxCell id="ieu4cb_8tg2tb4iUZJ9E-15" value="Video Stab" style="rounded=0;whiteSpace=wrap;html=1;" vertex="1" parent="ieu4cb_8tg2tb4iUZJ9E-39">
          <mxGeometry x="360" y="76" width="290" height="138" as="geometry" />
        </mxCell>
        <mxCell id="ieu4cb_8tg2tb4iUZJ9E-16" value="Frame Interpolation" style="rounded=0;whiteSpace=wrap;html=1;" vertex="1" parent="ieu4cb_8tg2tb4iUZJ9E-39">
          <mxGeometry x="760" y="76" width="290" height="138" as="geometry" />
        </mxCell>
        <mxCell id="ieu4cb_8tg2tb4iUZJ9E-17" value="Super Resolution" style="rounded=0;whiteSpace=wrap;html=1;" vertex="1" parent="ieu4cb_8tg2tb4iUZJ9E-39">
          <mxGeometry x="360" y="260" width="480" height="138" as="geometry" />
        </mxCell>
        <mxCell id="ieu4cb_8tg2tb4iUZJ9E-40" value="" style="group" vertex="1" connectable="0" parent="1">
          <mxGeometry x="450" y="850" width="1120" height="730" as="geometry" />
        </mxCell>
        <mxCell id="ieu4cb_8tg2tb4iUZJ9E-41" value="" style="rounded=0;whiteSpace=wrap;html=1;" vertex="1" parent="ieu4cb_8tg2tb4iUZJ9E-40">
          <mxGeometry width="1120" height="730" as="geometry" />
        </mxCell>
        <mxCell id="ieu4cb_8tg2tb4iUZJ9E-42" value="" style="endArrow=none;html=1;rounded=0;entryX=0.25;entryY=0;entryDx=0;entryDy=0;exitX=0.25;exitY=1;exitDx=0;exitDy=0;" edge="1" parent="ieu4cb_8tg2tb4iUZJ9E-40" source="ieu4cb_8tg2tb4iUZJ9E-41" target="ieu4cb_8tg2tb4iUZJ9E-41">
          <mxGeometry width="50" height="50" relative="1" as="geometry">
            <mxPoint x="-190" y="240" as="sourcePoint" />
            <mxPoint x="-140" y="190" as="targetPoint" />
          </mxGeometry>
        </mxCell>
        <mxCell id="ieu4cb_8tg2tb4iUZJ9E-43" value="" style="group" vertex="1" connectable="0" parent="ieu4cb_8tg2tb4iUZJ9E-40">
          <mxGeometry x="30" y="52" width="220" height="80" as="geometry" />
        </mxCell>
        <mxCell id="ieu4cb_8tg2tb4iUZJ9E-44" value="" style="rounded=0;whiteSpace=wrap;html=1;fillColor=#dae8fc;strokeColor=#6c8ebf;" vertex="1" parent="ieu4cb_8tg2tb4iUZJ9E-43">
          <mxGeometry width="220" height="80" as="geometry" />
        </mxCell>
        <mxCell id="ieu4cb_8tg2tb4iUZJ9E-45" value="" style="fillColor=#999999;verticalLabelPosition=bottom;sketch=0;html=1;strokeColor=#ffffff;verticalAlign=top;align=center;points=[[0.145,0.145,0],[0.5,0,0],[0.855,0.145,0],[1,0.5,0],[0.855,0.855,0],[0.5,1,0],[0.145,0.855,0],[0,0.5,0]];pointerEvents=1;shape=mxgraph.cisco_safe.compositeIcon;bgIcon=ellipse;resIcon=mxgraph.cisco_safe.capability.video;" vertex="1" parent="ieu4cb_8tg2tb4iUZJ9E-43">
          <mxGeometry x="10" y="19" width="43" height="43" as="geometry" />
        </mxCell>
        <mxCell id="ieu4cb_8tg2tb4iUZJ9E-46" value="Video Stab" style="text;strokeColor=none;fillColor=none;html=1;fontSize=14;fontStyle=1;verticalAlign=middle;align=left;" vertex="1" parent="ieu4cb_8tg2tb4iUZJ9E-43">
          <mxGeometry x="70" y="20.5" width="110" height="40" as="geometry" />
        </mxCell>
        <mxCell id="ieu4cb_8tg2tb4iUZJ9E-47" value="" style="group" vertex="1" connectable="0" parent="ieu4cb_8tg2tb4iUZJ9E-40">
          <mxGeometry x="30" y="134" width="220" height="80" as="geometry" />
        </mxCell>
        <mxCell id="ieu4cb_8tg2tb4iUZJ9E-48" value="" style="rounded=0;whiteSpace=wrap;html=1;" vertex="1" parent="ieu4cb_8tg2tb4iUZJ9E-47">
          <mxGeometry width="220" height="80" as="geometry" />
        </mxCell>
        <mxCell id="ieu4cb_8tg2tb4iUZJ9E-49" value="" style="fillColor=#999999;verticalLabelPosition=bottom;sketch=0;html=1;strokeColor=#ffffff;verticalAlign=top;align=center;points=[[0.145,0.145,0],[0.5,0,0],[0.855,0.145,0],[1,0.5,0],[0.855,0.855,0],[0.5,1,0],[0.145,0.855,0],[0,0.5,0]];pointerEvents=1;shape=mxgraph.cisco_safe.compositeIcon;bgIcon=ellipse;resIcon=mxgraph.cisco_safe.capability.video;" vertex="1" parent="ieu4cb_8tg2tb4iUZJ9E-47">
          <mxGeometry x="10" y="19" width="43" height="43" as="geometry" />
        </mxCell>
        <mxCell id="ieu4cb_8tg2tb4iUZJ9E-50" value="&lt;h2 style=&quot;box-sizing: border-box; margin-top: 24px; margin-bottom: 16px; line-height: 1.25; padding-bottom: 0.3em; border-bottom: 1px solid var(--color-border-muted); color: rgb(31, 35, 40); font-family: -apple-system, &amp;quot;system-ui&amp;quot;, &amp;quot;Segoe UI&amp;quot;, &amp;quot;Noto Sans&amp;quot;, Helvetica, Arial, sans-serif, &amp;quot;Apple Color Emoji&amp;quot;, &amp;quot;Segoe UI Emoji&amp;quot;; background-color: rgb(255, 255, 255); font-size: 14px;&quot; dir=&quot;auto&quot; tabindex=&quot;-1&quot;&gt;Frame Interpolation&lt;/h2&gt;" style="text;strokeColor=none;fillColor=none;html=1;fontSize=14;fontStyle=0;verticalAlign=middle;align=left;" vertex="1" parent="ieu4cb_8tg2tb4iUZJ9E-47">
          <mxGeometry x="70" y="20.5" width="140" height="40" as="geometry" />
        </mxCell>
        <mxCell id="ieu4cb_8tg2tb4iUZJ9E-51" value="" style="group" vertex="1" connectable="0" parent="ieu4cb_8tg2tb4iUZJ9E-40">
          <mxGeometry x="30" y="218" width="220" height="80" as="geometry" />
        </mxCell>
        <mxCell id="ieu4cb_8tg2tb4iUZJ9E-52" value="" style="rounded=0;whiteSpace=wrap;html=1;" vertex="1" parent="ieu4cb_8tg2tb4iUZJ9E-51">
          <mxGeometry y="-1" width="220" height="80" as="geometry" />
        </mxCell>
        <mxCell id="ieu4cb_8tg2tb4iUZJ9E-53" value="" style="fillColor=#999999;verticalLabelPosition=bottom;sketch=0;html=1;strokeColor=#ffffff;verticalAlign=top;align=center;points=[[0.145,0.145,0],[0.5,0,0],[0.855,0.145,0],[1,0.5,0],[0.855,0.855,0],[0.5,1,0],[0.145,0.855,0],[0,0.5,0]];pointerEvents=1;shape=mxgraph.cisco_safe.compositeIcon;bgIcon=ellipse;resIcon=mxgraph.cisco_safe.capability.video;" vertex="1" parent="ieu4cb_8tg2tb4iUZJ9E-51">
          <mxGeometry x="10" y="19" width="43" height="43" as="geometry" />
        </mxCell>
        <mxCell id="ieu4cb_8tg2tb4iUZJ9E-54" value="Super Resolution" style="text;strokeColor=none;fillColor=none;html=1;fontSize=14;fontStyle=1;verticalAlign=middle;align=left;" vertex="1" parent="ieu4cb_8tg2tb4iUZJ9E-51">
          <mxGeometry x="70" y="20.5" width="110" height="40" as="geometry" />
        </mxCell>
        <mxCell id="ieu4cb_8tg2tb4iUZJ9E-55" value="" style="group;" vertex="1" connectable="0" parent="ieu4cb_8tg2tb4iUZJ9E-40">
          <mxGeometry x="30" y="10" width="220" height="40" as="geometry" />
        </mxCell>
        <mxCell id="ieu4cb_8tg2tb4iUZJ9E-56" value="" style="rounded=0;whiteSpace=wrap;html=1;" vertex="1" parent="ieu4cb_8tg2tb4iUZJ9E-55">
          <mxGeometry width="220" height="40" as="geometry" />
        </mxCell>
        <mxCell id="ieu4cb_8tg2tb4iUZJ9E-57" value="Home" style="text;strokeColor=none;fillColor=none;html=1;fontSize=14;fontStyle=1;verticalAlign=middle;align=left;" vertex="1" parent="ieu4cb_8tg2tb4iUZJ9E-55">
          <mxGeometry x="70" y="10.25" width="110" height="20" as="geometry" />
        </mxCell>
        <mxCell id="ieu4cb_8tg2tb4iUZJ9E-58" value="" style="sketch=0;pointerEvents=1;shadow=0;dashed=0;html=1;strokeColor=none;fillColor=#505050;labelPosition=center;verticalLabelPosition=bottom;verticalAlign=top;outlineConnect=0;align=center;shape=mxgraph.office.concepts.home;" vertex="1" parent="ieu4cb_8tg2tb4iUZJ9E-55">
          <mxGeometry x="20" y="10.25" width="20" height="17.5" as="geometry" />
        </mxCell>
        <mxCell id="ieu4cb_8tg2tb4iUZJ9E-59" value="" style="rounded=0;whiteSpace=wrap;html=1;" vertex="1" parent="ieu4cb_8tg2tb4iUZJ9E-40">
          <mxGeometry x="330" y="76" width="740" height="104" as="geometry" />
        </mxCell>
        <mxCell id="ieu4cb_8tg2tb4iUZJ9E-69" value="" style="endArrow=none;html=1;rounded=0;entryX=1;entryY=0.863;entryDx=0;entryDy=0;entryPerimeter=0;" edge="1" parent="ieu4cb_8tg2tb4iUZJ9E-40" target="ieu4cb_8tg2tb4iUZJ9E-41">
          <mxGeometry width="50" height="50" relative="1" as="geometry">
            <mxPoint x="280" y="630" as="sourcePoint" />
            <mxPoint x="620" y="550" as="targetPoint" />
          </mxGeometry>
        </mxCell>
        <mxCell id="ieu4cb_8tg2tb4iUZJ9E-70" value="" style="rounded=1;whiteSpace=wrap;html=1;" vertex="1" parent="ieu4cb_8tg2tb4iUZJ9E-40">
          <mxGeometry x="370" y="667" width="490" height="40" as="geometry" />
        </mxCell>
        <mxCell id="ieu4cb_8tg2tb4iUZJ9E-71" value="Output" style="text;align=center;fontStyle=1;verticalAlign=middle;spacingLeft=3;spacingRight=3;strokeColor=none;rotatable=0;points=[[0,0.5],[1,0.5]];portConstraint=eastwest;html=1;" vertex="1" parent="ieu4cb_8tg2tb4iUZJ9E-40">
          <mxGeometry x="300" y="674" width="80" height="26" as="geometry" />
        </mxCell>
        <mxCell id="ieu4cb_8tg2tb4iUZJ9E-72" value="Start" style="rounded=1;whiteSpace=wrap;html=1;" vertex="1" parent="ieu4cb_8tg2tb4iUZJ9E-40">
          <mxGeometry x="970" y="657" width="120" height="60" as="geometry" />
        </mxCell>
        <mxCell id="ieu4cb_8tg2tb4iUZJ9E-64" value="" style="shape=image;html=1;verticalAlign=top;verticalLabelPosition=bottom;labelBackgroundColor=#ffffff;imageAspect=0;aspect=fixed;image=https://cdn4.iconfinder.com/data/icons/evil-icons-user-interface/64/setting-128.png" vertex="1" parent="ieu4cb_8tg2tb4iUZJ9E-40">
          <mxGeometry x="990" y="98.75" width="58.5" height="58.5" as="geometry" />
        </mxCell>
        <mxCell id="ieu4cb_8tg2tb4iUZJ9E-63" value="File Name.mp5" style="text;strokeColor=none;fillColor=none;html=1;fontSize=16;fontStyle=0;verticalAlign=middle;align=left;" vertex="1" parent="ieu4cb_8tg2tb4iUZJ9E-40">
          <mxGeometry x="440" y="108" width="100" height="40" as="geometry" />
        </mxCell>
        <mxCell id="ieu4cb_8tg2tb4iUZJ9E-73" value="" style="sketch=0;pointerEvents=1;shadow=0;dashed=0;html=1;strokeColor=none;fillColor=#505050;labelPosition=center;verticalLabelPosition=bottom;verticalAlign=top;outlineConnect=0;align=center;shape=mxgraph.office.concepts.video_play;" vertex="1" parent="ieu4cb_8tg2tb4iUZJ9E-40">
          <mxGeometry x="350" y="102" width="70" height="52" as="geometry" />
        </mxCell>
      </root>
    </mxGraphModel>
  </diagram>
</mxfile>
